<svg width="53" height="25" viewBox="0 0 53 25" fill="none" xmlns="http://www.w3.org/2000/svg">
<path d="M0.363636 24V0.727272H1.78409V22.6818H13.1477V24H0.363636ZM27.0909 0.727272H28.5114V17.6705C28.5114 19.2159 28.2424 20.4773 27.7045 21.4545C27.1742 22.4318 26.4583 23.1553 25.5568 23.625C24.6629 24.0871 23.6591 24.3182 22.5455 24.3182C21.4091 24.3182 20.3902 24.1061 19.4886 23.6818C18.5947 23.25 17.8864 22.6553 17.3636 21.8977C16.8409 21.1402 16.5833 20.2652 16.5909 19.2727H18C17.9924 20 18.1856 20.6439 18.5795 21.2045C18.9811 21.7576 19.5265 22.197 20.2159 22.5227C20.9053 22.8409 21.6818 23 22.5455 23C23.3788 23 24.1402 22.822 24.8295 22.4659C25.5189 22.1098 26.0644 21.5417 26.4659 20.7614C26.875 19.9811 27.0833 18.9508 27.0909 17.6705V0.727272ZM35.2386 24V0.727272H36.6591V11.6932H50.6818V0.727272H52.1023V24H50.6818V13.0114H36.6591V24H35.2386Z" fill="#29A587" fill-opacity="0.564706"/>
</svg>
